<?xml version="1.0" standalone="no"?><!DOCTYPE svg PUBLIC "-//W3C//DTD SVG 1.1//EN" "http://www.w3.org/Graphics/SVG/1.1/DTD/svg11.dtd"><svg t="1649669231690" class="icon" viewBox="0 0 1024 1024" version="1.1" xmlns="http://www.w3.org/2000/svg" p-id="2213" xmlns:xlink="http://www.w3.org/1999/xlink"><defs><style type="text/css">@font-face { font-family: feedback-iconfont; src: url("//at.alicdn.com/t/font_1031158_u69w8yhxdu.woff2?t=1630033759944") format("woff2"), url("//at.alicdn.com/t/font_1031158_u69w8yhxdu.woff?t=1630033759944") format("woff"), url("//at.alicdn.com/t/font_1031158_u69w8yhxdu.ttf?t=1630033759944") format("truetype"); }
</style></defs><path d="M898.004474 894.186428 798.735272 894.186428 798.735272 993.45563C798.735272 1009.90301 785.401891 1023.236391 768.954512 1023.236391 752.507132 1023.236391 739.173751 1009.90301 739.173751 993.45563L739.173751 894.186428 639.904549 894.186428C623.457169 894.186428 610.123788 880.853047 610.123788 864.405667 610.123788 847.958288 623.457169 834.624907 639.904549 834.624907L739.173751 834.624907 739.173751 735.355705C739.173751 718.908325 752.507132 705.574944 768.954512 705.574944 785.401891 705.574944 798.735272 718.908325 798.735272 735.355705L798.735272 834.624907 898.004474 834.624907C914.451854 834.624907 927.785235 847.958288 927.785235 864.405667 927.785235 880.853047 914.451854 894.186428 898.004474 894.186428ZM768.954512 641.049963C752.507132 641.049963 739.173751 627.716582 739.173751 611.269202L739.173751 60.32513 415.012081 60.32513C415.013608 60.452653 415.021626 60.579031 415.021626 60.706935L415.021626 291.316928C415.021626 307.764307 401.688245 321.097688 385.240865 321.097688L155.776286 321.097688 155.776286 836.152125 515.054437 836.152125C531.501817 836.152125 544.835198 849.485506 544.835198 865.932886 544.835198 882.380265 531.501817 895.713647 515.054437 895.713647L125.995526 895.713647C109.548146 895.713647 96.214765 882.380265 96.214765 865.932886L96.214765 242.064131C96.214765 237.412987 97.282291 233.011544 99.18406 229.089647 99.90567 226.826309 101.078574 224.786327 102.737515 223.086151L309.85087 10.837906C310.512919 10.088805 311.210476 9.372158 311.943541 8.693309L314.300802 6.277632C317.094849 3.414097 320.879296 1.89146 325.120764 1.610452 327.381429 1.061417 329.7406 0.763609 332.170022 0.763609L768.954512 0.763609C785.401891 0.763609 798.735272 14.09699 798.735272 30.54437L798.735272 611.269202C798.735272 627.716582 785.401891 641.049963 768.954512 641.049963ZM344.780647 60.32513 155.776286 254.015761 155.776286 261.536167 355.460104 261.536167 355.460104 60.706935C355.460104 60.579031 355.468122 60.452653 355.46965 60.32513L344.780647 60.32513Z" p-id="2214"></path></svg>