<?xml version="1.0" standalone="no"?><!DOCTYPE svg PUBLIC "-//W3C//DTD SVG 1.1//EN" "http://www.w3.org/Graphics/SVG/1.1/DTD/svg11.dtd"><svg t="1651841433273" class="icon" viewBox="0 0 1024 1024" version="1.1" xmlns="http://www.w3.org/2000/svg" p-id="32352" xmlns:xlink="http://www.w3.org/1999/xlink" width="200" height="200"><defs><style type="text/css">@font-face { font-family: feedback-iconfont; src: url("//at.alicdn.com/t/font_1031158_u69w8yhxdu.woff2?t=1630033759944") format("woff2"), url("//at.alicdn.com/t/font_1031158_u69w8yhxdu.woff?t=1630033759944") format("woff"), url("//at.alicdn.com/t/font_1031158_u69w8yhxdu.ttf?t=1630033759944") format("truetype"); }
</style></defs><path d="M0 512a512 512 0 1 0 1024 0A512 512 0 1 0 0 512z" fill="#F5222D" p-id="32353"></path><path d="M753 703.3c12.6 12.4 12.8 32.6 0.5 45.3-12.4 12.6-32.6 12.8-45.3 0.5L512 556.8 315.8 749c-12.6 12.4-32.9 12.2-45.3-0.5-12.4-12.6-12.2-32.9 0.5-45.3L466.3 512 271 320.7c-12.6-12.4-12.8-32.6-0.5-45.3 12.4-12.6 32.6-12.8 45.3-0.5L512 467.2 708.2 275c12.6-12.4 32.9-12.2 45.3 0.5 12.4 12.6 12.2 32.9-0.5 45.3L557.7 512 753 703.3z" fill="#FFFFFF" p-id="32354"></path></svg>