<?xml version="1.0" standalone="no"?><!DOCTYPE svg PUBLIC "-//W3C//DTD SVG 1.1//EN" "http://www.w3.org/Graphics/SVG/1.1/DTD/svg11.dtd"><svg t="1652246103034" class="icon" viewBox="0 0 1024 1024" version="1.1" xmlns="http://www.w3.org/2000/svg" p-id="6270" xmlns:xlink="http://www.w3.org/1999/xlink" width="200" height="200"><defs><style type="text/css">@font-face { font-family: feedback-iconfont; src: url("//at.alicdn.com/t/font_1031158_u69w8yhxdu.woff2?t=1630033759944") format("woff2"), url("//at.alicdn.com/t/font_1031158_u69w8yhxdu.woff?t=1630033759944") format("woff"), url("//at.alicdn.com/t/font_1031158_u69w8yhxdu.ttf?t=1630033759944") format("truetype"); }
</style></defs><path d="M70.4 497.1c-5.1 5-6.5 12.7-3.8 19.2l125.7 304.2c2.7 6.6 9.2 10.9 16.3 10.9 7.2 0 13.6-4.3 16.3-10.9l88.8-215.2c0.9-2.2 1.3-4.5 1.3-6.7 0-6.9-4.1-13.5-10.9-16.3L89.7 493.3C83.1 490.5 75.5 492.1 70.4 497.1zM274.4 608.2l-65.8 159.4-93.1-225.4L274.4 608.2zM201.9 797.5c-6.6 2.7-10.9 9.2-10.9 16.3 0 7.2 4.3 13.6 10.9 16.3l303.3 126c6.6 2.7 14.2 1.2 19.2-3.8 3.4-3.4 5.2-7.9 5.2-12.5 0-2.3-0.4-4.6-1.3-6.7L439.5 718c-1.8-4.3-5.2-7.8-9.5-9.6-4.3-1.8-9.2-1.8-13.5 0L201.9 797.5zM479.4 907.2l-224.8-93.4 158.9-66L479.4 907.2zM505.2 671.6l-88.8 36.9c-9 3.7-13.2 14.1-9.5 23l88.8 215.1c2.7 6.6 9.2 10.9 16.3 10.9 7.2 0 13.6-4.3 16.3-10.9l88.8-215.1c0.9-2.2 1.3-4.5 1.3-6.7 0-6.9-4.1-13.5-10.9-16.3l-88.7-36.9c-2.2-0.9-4.6-1.3-6.9-1.3C509.7 670.2 507.4 670.7 505.2 671.6zM577.8 734.3 512 893.6l-65.8-159.3 65.9-27.3L577.8 734.3zM507 62.8c-0.6 0.2-1.2-0.1-1.8 0.2L201.8 189.1c-0.6 0.2-0.7 0.8-1.2 1.1-2 1.1-3.5 2.7-5 4.5-0.4 0.6-1 0.9-1.3 1.6-0.6 0.9-1.6 1.4-2 2.4L66.6 502.9c-2.6 6.5-1.2 14.2 3.8 19.2 5.1 5.1 12.7 6.6 19.2 3.8l39.3-16.3 0 0 84.5-35.1 90.8-37.7c6.8-2.8 10.9-9.4 10.9-16.3 0-2.3-0.4-4.5-1.3-6.7l-6.8-16.4 0 0-18-43.7L241.2 238l0 0 0 0 158.9 66 0 0 16.3 6.8c4.3 1.8 9.2 1.8 13.5 0 4.3-1.8 7.8-5.3 9.5-9.6l6.7-16.3 0 0L512 125.5l72.5 175.6c1.8 4.3 5.2 7.8 9.5 9.6 4.3 1.8 9.2 1.8 13.5 0l16.3-6.8 0 0 158.9-66 0 0 0 0-72.6 175.8c-3.7 8.8 0.5 19.3 9.5 23l103.9 43.1 71.4 29.6-71.4 29.6-103.8 43.1c-9 3.7-13.2 13.9-9.5 23l6.8 16.4 0 0 31.5 76.3 34.3 83.1 0 0 0 0-158.9-66 0 0-16.3-6.8c-4.3-1.8-9.2-1.8-13.5 0-4.3 1.8-7.8 5.3-9.5 9.6l-88.8 215.1c-2.7 6.4-1.2 14.1 3.8 19.2 5.1 5.1 12.7 6.6 19.2 3.8l303.4-126c0.6-0.2 0.9-0.8 1.4-1.2 1.5-0.8 2.6-1.9 3.8-3.1 1.3-1.3 2.4-2.4 3.3-4 0.3-0.5 0.9-0.8 1.1-1.3l125.7-304.2c0.9-2.2 1.3-4.5 1.3-6.7s-0.4-4.6-1.3-6.7L831.7 198.6c-0.2-0.6-0.8-0.8-1.1-1.3-0.8-1.6-2-2.7-3.3-4-1.2-1.2-2.3-2.3-3.8-3.1-0.5-0.3-0.8-0.9-1.4-1.2L518.7 63c-0.6-0.2-1.2 0-1.8-0.2-1.7-0.5-3.2-0.5-5-0.5C510.2 62.3 508.7 62.3 507 62.8zM274.4 411l-158.9 66 93.1-225.4L274.4 411zM544.5 907.2l65.8-159.4 159 66L544.5 907.2zM815.4 767.6l-65.8-159.4 158.9-66L815.4 767.6zM908.5 477l-158.9-66 65.8-159.4L908.5 477zM769.4 205.4l-159 66-65.8-159.4L769.4 205.4zM413.6 271.3l-158.9-66 224.8-93.4L413.6 271.3zM281.1 591.9l-88.8 215.2c-2.6 6.5-1.2 14.2 3.8 19.2 5.1 5.1 12.7 6.6 19.2 3.8l214.5-89.1c6.8-2.8 10.9-9.4 10.9-16.3 0-2.3-0.4-4.5-1.3-6.7L403 629.9c-1.6-4.7-5.2-8.7-10-10.7l-88.8-36.9c-4.3-1.8-9.2-1.8-13.5 0C286.4 584.1 282.9 587.6 281.1 591.9zM372.7 649l27.4 66.2-158.9 66L307 621.7 372.7 649zM416.4 278.1c-4.3 1.8-7.8 5.2-9.6 9.6L372.8 370l-82.1 34.2c-9 3.7-13.2 13.9-9.5 23l34 82.3-34 82.3c-3.7 8.9 0.6 19.3 9.5 23l82 34.1 34.2 82.5c1.8 4.4 5.2 7.8 9.5 9.6 4.3 1.8 9.2 1.8 13.5 0L512 707l82 34.1c4.3 1.8 9.2 1.8 13.5 0 4.3-1.8 7.8-5.2 9.6-9.6l34.1-82.3 82.1-34.2c6.8-2.8 10.9-9.4 10.9-16.3 0-2.3-0.4-4.5-1.3-6.7l-34-82.3 34-82.3c0.9-2.2 1.3-4.5 1.3-6.7 0-6.9-4.1-13.5-10.9-16.3l-82-34-34.2-82.5c-1.8-4.4-5.2-7.8-9.6-9.6-4.3-1.8-9.2-1.8-13.5 0l-82.1 34.1-82-34.1C425.6 276.3 420.7 276.3 416.4 278.1zM320.5 430.1l33.2-13.8-19.5 47.1L320.5 430.1zM320.5 589.1l13.8-33.3 19.4 47.1L320.5 589.1zM418.9 668.3l47.1 19.6-33.3 13.8L418.9 668.3zM591.3 701.7l-33.2-13.8 47-19.6L591.3 701.7zM703.5 589.1 670.3 603l19.5-47.1L703.5 589.1zM703.5 430.1l-13.7 33.3-19.5-47.1L703.5 430.1zM624.1 397l46.6 112.6-27.6 66.8-18.9 45.7-108.7 45.2-3.5 1.4-112.2-46.6-46.6-112.6L399.8 397l82.1-34.1 30-12.5 15.7 6.5L624.1 397zM605.1 350.8 558 331.3l33.2-13.8L605.1 350.8zM465.9 331.3l-47 19.5 13.8-33.3L465.9 331.3z" p-id="6271"></path></svg>