<?xml version="1.0" standalone="no"?><!DOCTYPE svg PUBLIC "-//W3C//DTD SVG 1.1//EN" "http://www.w3.org/Graphics/SVG/1.1/DTD/svg11.dtd"><svg t="1652246037454" class="icon" viewBox="0 0 1024 1024" version="1.1" xmlns="http://www.w3.org/2000/svg" p-id="4288" xmlns:xlink="http://www.w3.org/1999/xlink" width="200" height="200"><defs><style type="text/css">@font-face { font-family: feedback-iconfont; src: url("//at.alicdn.com/t/font_1031158_u69w8yhxdu.woff2?t=1630033759944") format("woff2"), url("//at.alicdn.com/t/font_1031158_u69w8yhxdu.woff?t=1630033759944") format("woff"), url("//at.alicdn.com/t/font_1031158_u69w8yhxdu.ttf?t=1630033759944") format("truetype"); }
</style></defs><path d="M382.302164 347.969975C373.395456 347.969975 366.205703 355.181202 366.205703 364.06645L366.205703 953.561673C366.205703 962.446921 373.395456 969.658075 382.302164 969.658075 391.165945 969.658075 398.398625 962.446921 398.398625 953.561673L398.398625 364.06645C398.398625 355.181202 391.165945 347.969975 382.302164 347.969975L382.302164 347.969975ZM89.239318 592.206921C80.35407 592.206921 73.142857 599.418075 73.142857 608.303323L73.142857 953.561673C73.142857 962.446921 80.35407 969.658075 89.239318 969.658075 98.124559 969.658075 105.335771 962.446921 105.335771 953.561673L105.335771 608.303323C105.335771 599.418075 98.124559 592.206921 89.239318 592.206921L89.239318 592.206921ZM968.384936 392.26741C959.499696 392.26741 952.309943 399.478638 952.309943 408.363886L952.309943 953.561673C952.309943 962.446921 959.499696 969.658075 968.384936 969.658075 977.270184 969.658075 984.502857 962.446921 984.502857 953.561673L984.502857 408.363886C984.502857 399.478638 977.270184 392.26741 968.384936 392.26741L968.384936 392.26741ZM963.448693 209.818843C972.333941 209.711543 979.480766 202.43595 979.394918 193.550702L978.19305 89.052526C978.150122 84.588398 976.218551 80.338944 972.913408 77.312805 969.608272 74.308169 965.251496 72.84875 960.723024 73.192155L856.58967 82.012965C847.72589 82.764142 841.158532 90.533376 841.888241 99.397193 842.639411 108.260937 850.558866 114.635118 859.293879 114.098615L922.585154 108.733147 675.536713 380.698843 392.81852 103.732517C386.6804 97.723173 376.958142 97.551433 370.669787 103.346176L78.894658 370.204014C72.327303 376.213358 71.876602 386.386286 77.885945 392.953637 83.895289 399.520987 94.068253 399.950263 100.614144 393.96235L381.164683 137.384814 664.95597 415.381358C667.960642 418.343131 672.016955 419.974217 676.223495 419.974217L676.695654 419.974217C681.052431 419.845486 685.194584 417.93536 688.134868 414.71605L946.472294 130.345326 947.180537 193.915538C947.287852 202.736421 954.456137 209.818843 963.298458 209.818843L963.448693 209.818843 963.448693 209.818843ZM675.34355 591.584475C666.458309 591.584475 659.247097 598.795703 659.247097 607.680951L659.247097 953.561673C659.247097 962.446921 666.458309 969.658075 675.34355 969.658075 684.228798 969.658075 691.440011 962.446921 691.440011 953.561673L691.440011 607.680951C691.440011 598.795703 684.228798 591.584475 675.34355 591.584475L675.34355 591.584475Z" p-id="4289"></path></svg>