<?xml version="1.0" standalone="no"?><!DOCTYPE svg PUBLIC "-//W3C//DTD SVG 1.1//EN" "http://www.w3.org/Graphics/SVG/1.1/DTD/svg11.dtd"><svg t="1651840707931" class="icon" viewBox="0 0 1024 1024" version="1.1" xmlns="http://www.w3.org/2000/svg" p-id="25940" xmlns:xlink="http://www.w3.org/1999/xlink" width="200" height="200"><defs><style type="text/css">@font-face { font-family: feedback-iconfont; src: url("//at.alicdn.com/t/font_1031158_u69w8yhxdu.woff2?t=1630033759944") format("woff2"), url("//at.alicdn.com/t/font_1031158_u69w8yhxdu.woff?t=1630033759944") format("woff"), url("//at.alicdn.com/t/font_1031158_u69w8yhxdu.ttf?t=1630033759944") format("truetype"); }
</style></defs><path d="M512 983.04C251.904 983.04 40.96 772.096 40.96 512S251.904 40.96 512 40.96s471.04 210.944 471.04 471.04c0 118.784-44.032 232.448-124.928 319.488-11.264 12.288-30.72 13.312-43.008 2.048-12.288-11.264-13.312-30.72-2.048-43.008C882.688 713.728 921.6 615.424 921.6 512c0-226.304-183.296-409.6-409.6-409.6S102.4 285.696 102.4 512s183.296 409.6 409.6 409.6c76.8 0 151.552-21.504 217.088-62.464 14.336-9.216 33.792-5.12 41.984 10.24 9.216 14.336 5.12 33.792-10.24 41.984-73.728 47.104-160.768 71.68-248.832 71.68z" p-id="25941"></path><path d="M483.328 542.72c-17.408 0-30.72-13.312-30.72-30.72V272.384c0-17.408 13.312-30.72 30.72-30.72s30.72 13.312 30.72 30.72V512c0 17.408-13.312 30.72-30.72 30.72z" p-id="25942"></path><path d="M716.8 779.264c-8.192 0-15.36-3.072-21.504-9.216L461.824 536.576c-12.288-12.288-12.288-31.744 0-43.008 12.288-12.288 31.744-12.288 43.008 0L738.304 727.04c12.288 12.288 12.288 31.744 0 43.008-6.144 6.144-13.312 9.216-21.504 9.216z" p-id="25943"></path></svg>