<?xml version="1.0" standalone="no"?><!DOCTYPE svg PUBLIC "-//W3C//DTD SVG 1.1//EN" "http://www.w3.org/Graphics/SVG/1.1/DTD/svg11.dtd"><svg t="1651840592782" class="icon" viewBox="0 0 1024 1024" version="1.1" xmlns="http://www.w3.org/2000/svg" p-id="24259" xmlns:xlink="http://www.w3.org/1999/xlink" width="200" height="200"><defs><style type="text/css">@font-face { font-family: feedback-iconfont; src: url("//at.alicdn.com/t/font_1031158_u69w8yhxdu.woff2?t=1630033759944") format("woff2"), url("//at.alicdn.com/t/font_1031158_u69w8yhxdu.woff?t=1630033759944") format("woff"), url("//at.alicdn.com/t/font_1031158_u69w8yhxdu.ttf?t=1630033759944") format("truetype"); }
</style></defs><path d="M68 84.1V945h894.08V84.1z m834.08 60v176.12H128V144.1zM128 885V380.22h774.08V885z" fill="#111111" p-id="24260"></path><path d="M826.059539 233.431683m-35.458496 14.68739a38.38 38.38 0 1 0 70.916993-29.37478 38.38 38.38 0 1 0-70.916993 29.37478Z" fill="#111111" p-id="24261"></path><path d="M700.803799 233.432825m-35.458497 14.68739a38.38 38.38 0 1 0 70.916993-29.37478 38.38 38.38 0 1 0-70.916993 29.37478Z" fill="#111111" p-id="24262"></path><path d="M575.548778 233.427856m-35.458497 14.68739a38.38 38.38 0 1 0 70.916993-29.37478 38.38 38.38 0 1 0-70.916993 29.37478Z" fill="#111111" p-id="24263"></path><path d="M728.89 655.8l-45.51 45.51v64.36l45.51 45.51h64.36l45.51-45.51v-64.36l-45.51-45.51z m60.75 99.62l-23.87 13.78-26.63-7.13-13.78-23.88 7.13-26.63 23.88-13.78 26.63 7.13 13.78 23.88zM185.57 478.91l2.89 63.35h302.07l-2.9-63.35H185.57zM188.46 601h209.63v63.35H188.46zM188.46 723.09h136.4v63.35h-136.4z" fill="#111111" p-id="24264"></path></svg>