<?xml version="1.0" standalone="no"?><!DOCTYPE svg PUBLIC "-//W3C//DTD SVG 1.1//EN" "http://www.w3.org/Graphics/SVG/1.1/DTD/svg11.dtd"><svg t="1651029787121" class="icon" viewBox="0 0 1024 1024" version="1.1" xmlns="http://www.w3.org/2000/svg" p-id="2709" xmlns:xlink="http://www.w3.org/1999/xlink" width="200" height="200"><defs><style type="text/css">@font-face { font-family: feedback-iconfont; src: url("//at.alicdn.com/t/font_1031158_u69w8yhxdu.woff2?t=1630033759944") format("woff2"), url("//at.alicdn.com/t/font_1031158_u69w8yhxdu.woff?t=1630033759944") format("woff"), url("//at.alicdn.com/t/font_1031158_u69w8yhxdu.ttf?t=1630033759944") format("truetype"); }
</style></defs><path d="M261.31 467.211l99.327-108.188-55.43-60.327L138.92 479.722l-27.648 30.141 193.981 211.39 55.34-60.55-99.283-108.188H677.5V467.21h-416.19zM442.423 1024h391.791a75.42 75.42 0 0 0 55.608-25.021 89.533 89.533 0 0 0 22.84-60.55V85.526A82.276 82.276 0 0 0 834.036 0H442.246v85.304H794.68a37.576 37.576 0 0 1 27.781 12.243 44.522 44.522 0 0 1 11.665 30.052v768.757a41.227 41.227 0 0 1-39.446 42.34H442.424V1024z m0 0" p-id="2710"></path></svg>