<?xml version="1.0" standalone="no"?><!DOCTYPE svg PUBLIC "-//W3C//DTD SVG 1.1//EN" "http://www.w3.org/Graphics/SVG/1.1/DTD/svg11.dtd"><svg t="1651841323908" class="icon" viewBox="0 0 1024 1024" version="1.1" xmlns="http://www.w3.org/2000/svg" p-id="28702" xmlns:xlink="http://www.w3.org/1999/xlink" width="200" height="200"><defs><style type="text/css">@font-face { font-family: feedback-iconfont; src: url("//at.alicdn.com/t/font_1031158_u69w8yhxdu.woff2?t=1630033759944") format("woff2"), url("//at.alicdn.com/t/font_1031158_u69w8yhxdu.woff?t=1630033759944") format("woff"), url("//at.alicdn.com/t/font_1031158_u69w8yhxdu.ttf?t=1630033759944") format("truetype"); }
</style></defs><path d="M896 512a384 384 0 1 0-384 384 384 384 0 0 0 384-384z m64 0A448 448 0 1 1 512 64a448 448 0 0 1 448 448z" p-id="28703"></path><path d="M310.72 598.72a32 32 0 0 1-45.44-45.44l224-224a32 32 0 0 1 45.44 0l224 224a32 32 0 0 1-45.44 45.44L512 397.12z" p-id="28704"></path></svg>