<?xml version="1.0" standalone="no"?><!DOCTYPE svg PUBLIC "-//W3C//DTD SVG 1.1//EN" "http://www.w3.org/Graphics/SVG/1.1/DTD/svg11.dtd"><svg t="1651841520217" class="icon" viewBox="0 0 1024 1024" version="1.1" xmlns="http://www.w3.org/2000/svg" p-id="38168" xmlns:xlink="http://www.w3.org/1999/xlink" width="200" height="200"><defs><style type="text/css">@font-face { font-family: feedback-iconfont; src: url("//at.alicdn.com/t/font_1031158_u69w8yhxdu.woff2?t=1630033759944") format("woff2"), url("//at.alicdn.com/t/font_1031158_u69w8yhxdu.woff?t=1630033759944") format("woff"), url("//at.alicdn.com/t/font_1031158_u69w8yhxdu.ttf?t=1630033759944") format("truetype"); }
</style></defs><path d="M823.816533 593.92c23.739733 0 41.079467 10.3168 56.234667 33.467733a21.333333 21.333333 0 0 0 39.185067-11.682133V470.365867a21.333333 21.333333 0 0 0-21.333334-21.333334H777.3952c13.4656-21.896533 20.258133-44.7744 20.266667-68.386133-0.008533-53.947733-35.1232-101.128533-82.5344-118.3488a21.290667 21.290667 0 0 0-17.757867-9.531733H558.472533c9.309867-15.829333 15.6928-33.578667 15.701334-54.621867-0.008533-59.392-48.7424-109.568-106.4192-109.568-28.501333 0-55.441067 12.074667-75.861334 33.988267-19.4816 20.923733-30.660267 49.006933-30.651733 77.047466 0 20.718933 5.905067 37.632 15.112533 53.154134H274.9696a21.333333 21.333333 0 0 0-21.333333 21.333333v76.740267c-12.100267-6.459733-26.717867-10.811733-44.416-10.811734-58.564267 0-104.448 46.805333-104.448 106.555734 0 59.767467 45.4144 106.5984 103.3984 106.5984 16.494933 0 31.581867-3.6864 45.4656-11.136v137.386666c0 1.7152 0.256 3.370667 0.64 4.983467 5.538133 62.651733 55.936 110.216533 119.330133 110.216533 23.995733 0 42.845867-7.1168 59.221333-17.8688v137.335467a21.333333 21.333333 0 0 0 21.333334 21.333333h443.733333a21.333333 21.333333 0 0 0 21.333333-21.333333V730.180267a21.333333 21.333333 0 0 0-39.176533-11.690667c-15.172267 23.150933-32.529067 33.467733-56.251733 33.467733a78.549333 78.549333 0 0 1-55.9104-23.150933 78.4896 78.4896 0 0 1-23.1424-55.8848c0.008533-43.554133 35.4816-79.0016 79.069866-79.0016z m-615.645866-83.4048c-34.628267 0-60.731733-27.485867-60.731734-63.9232 0-35.831467 27.144533-63.889067 61.781334-63.889067 19.1744 0 33.3312 8.209067 48.861866 28.330667a21.316267 21.316267 0 1 0 38.2208-13.0304v-102.570667h122.862934a21.316267 21.316267 0 0 0 16.136533-35.2768c-21.7088-25.130667-31.394133-39.8336-31.394133-60.544 0-17.373867 6.997333-34.858667 19.208533-47.965866 12.2624-13.1584 28.1088-20.411733 44.629333-20.411734 34.551467 0 63.744 30.6432 63.752534 66.901334-0.008533 21.376-10.7008 37.6576-31.752534 62.0032a21.333333 21.333333 0 0 0 16.136534 35.285333h72.635733c-21.623467 23.8592-34.039467 55.466667-34.030933 87.022933 0 23.210667 6.4768 45.243733 19.6608 66.577067h-119.978667a21.333333 21.333333 0 0 0-21.333333 21.333333v98.5344c-16.264533-10.760533-34.747733-17.646933-58.632534-17.646933-29.696 0-56.874667 10.9568-77.9008 29.013333v-85.0432a21.333333 21.333333 0 0 0-38.2208-13.0304c-15.121067 19.592533-30.5152 28.330667-49.911466 28.330667z m529.5616 248.465067a120.891733 120.891733 0 0 0 86.075733 35.652266c19.490133 0 37.12-4.650667 52.7616-13.9008v112.034134h-401.066667V730.180267a21.3248 21.3248 0 0 0-36.548266-14.9504c-24.968533 25.403733-40.337067 36.736-65.339734 36.736-43.298133 0-77.218133-34.7136-77.218133-79.035734s34.176-79.018667 77.806933-79.018666c24.686933 0 39.296 10.8288 64.750934 36.736a21.2992 21.2992 0 0 0 23.287466 4.795733 21.3504 21.3504 0 0 0 13.2608-19.746133V491.6992h143.4112a21.316267 21.316267 0 0 0 14.941867-36.548267c-25.0368-24.6016-36.693333-47.701333-36.693333-72.704-0.008533-21.4272 8.610133-42.999467 23.645866-59.1872 15.163733-16.3328 34.807467-25.326933 55.296-25.326933 42.752 0 78.865067 37.879467 78.8736 82.7136-0.008533 25.2416-12.501333 50.312533-37.128533 74.504533a21.316267 21.316267 0 0 0 14.941867 36.548267h143.752533v73.4464c-15.633067-9.2416-33.245867-13.892267-52.753067-13.892267-67.114667 0-121.728 54.5792-121.728 121.685334a120.968533 120.968533 0 0 0 35.669334 86.0416z" p-id="38169"></path></svg>