<?xml version="1.0" standalone="no"?><!DOCTYPE svg PUBLIC "-//W3C//DTD SVG 1.1//EN" "http://www.w3.org/Graphics/SVG/1.1/DTD/svg11.dtd"><svg t="1651158943303" class="icon" viewBox="0 0 1024 1024" version="1.1" xmlns="http://www.w3.org/2000/svg" p-id="17297" xmlns:xlink="http://www.w3.org/1999/xlink" width="200" height="200"><defs><style type="text/css">@font-face { font-family: feedback-iconfont; src: url("//at.alicdn.com/t/font_1031158_u69w8yhxdu.woff2?t=1630033759944") format("woff2"), url("//at.alicdn.com/t/font_1031158_u69w8yhxdu.woff?t=1630033759944") format("woff"), url("//at.alicdn.com/t/font_1031158_u69w8yhxdu.ttf?t=1630033759944") format("truetype"); }
</style></defs><path d="M426.666667 989.866667H341.333333V34.133333h273.066667v85.333334a17.066667 17.066667 0 0 0 34.133333 0v-102.4a17.066667 17.066667 0 0 0-17.066666-17.066667H17.066667a17.066667 17.066667 0 0 0-17.066667 17.066667v102.4a17.066667 17.066667 0 0 0 34.133333 0V34.133333h273.066667v955.733334H221.866667a17.066667 17.066667 0 0 0 0 34.133333h204.8a17.066667 17.066667 0 0 0 0-34.133333z m580.266666-512h-375.466666a17.066667 17.066667 0 0 0-17.066667 17.066666v34.133334a17.066667 17.066667 0 0 0 34.133333 0V512h170.666667v477.866667h-17.066667a17.066667 17.066667 0 0 0 0 34.133333h68.266667a17.066667 17.066667 0 0 0 0-34.133333H853.333333V512h136.533334v17.066667a17.066667 17.066667 0 0 0 34.133333 0v-34.133334a17.066667 17.066667 0 0 0-17.066667-17.066666z" fill="" p-id="17298"></path></svg>